<svg width="80" height="80" viewBox="0 0 80 80" fill="none" xmlns="http://www.w3.org/2000/svg">
<rect width="80" height="80" rx="15.2381" fill="#FF5E3A"/>
<path d="M27.761 39.8933C28.4004 37.7513 28.9119 36.1048 29.2955 34.9539C29.7112 33.771 30.1108 32.7159 30.4944 31.7888C30.8781 30.8617 31.3097 29.9665 31.7892 29.1033C32.3008 28.2401 32.8443 27.4568 33.4197 26.7535C34.0272 26.0182 34.6666 25.4427 35.3379 25.0271C36.0093 24.6115 36.7127 24.4037 37.448 24.4037C38.1833 24.4037 38.9506 24.6914 39.7498 25.2669C41.0287 28.4639 41.8119 30.6059 42.0997 31.6929C42.4833 33.2914 42.835 35.5453 43.1547 38.4546C43.4424 37.7193 43.7621 36.952 44.1138 36.1527C44.4974 35.3215 44.8651 34.4903 45.2168 33.6591C46.2078 31.549 46.8313 29.9505 47.087 28.8635C47.7904 26.6256 49.245 24.9472 51.451 23.8282C53.3692 22.8691 55.1595 22.5654 56.822 22.917C57.4934 23.0449 57.9569 23.3167 58.2127 23.7323C58.5004 24.1479 58.5004 24.5795 58.2127 25.0271C57.9569 25.4747 57.861 25.9063 57.925 26.3219C58.0209 26.7055 58.1008 27.1691 58.1647 27.7126C58.2607 29.1832 58.0049 30.494 57.3975 31.6449C56.79 32.7639 56.1666 34.1706 55.5272 35.865C54.8878 37.5275 54.2324 39.3018 53.561 41.1881C52.9216 43.0743 52.2662 44.9925 51.5948 46.9427C50.9235 48.8929 50.2681 50.6673 49.6287 52.2658C48.222 55.9424 47.071 57.9725 46.1759 58.3561C44.961 59.0915 44.0658 59.5231 43.4904 59.6509C42.7551 59.7788 41.716 59.7788 40.3733 59.6509C39.542 59.587 38.8227 58.516 38.2153 56.4379C37.8636 55.319 37.5439 53.7684 37.2562 51.7862C36.7446 48.3334 36.393 46.4312 36.2011 46.0795C34.9223 50.2357 34.0112 52.8572 33.4677 53.9442C32.9561 55.0312 32.5565 55.7506 32.2688 56.1022C32.013 56.4539 31.6933 56.9175 31.3097 57.4929C30.8941 58.6439 29.903 59.4911 28.3364 60.0346C26.9937 60.5461 25.7788 60.626 24.6918 60.2744C23.5089 59.8907 23.1572 59.1554 23.6368 58.0684C23.9885 54.232 25.3632 48.1736 27.761 39.8933Z" fill="#04021B"/>
</svg>
